<?xml version="1.0" encoding="UTF-8"?>
<svg id="Layer_2" data-name="Layer 2" xmlns="http://www.w3.org/2000/svg" viewBox="0 0 250 250">
  <defs>
    <style>
      .cls-1 {
        fill: #f2f2f2;
      }

      .cls-2 {
        fill: #01171e;
      }

      .cls-3 {
        fill: #a7ea15;
      }
    </style>
  </defs>
  <g id="Layer_2-2" data-name="Layer 2">
    <rect class="cls-2" width="250" height="250" rx="25" ry="25"/>
    <g>
      <polygon class="cls-1" points="214.73 96.37 214.73 75 155.75 75 136.1 75 136.1 94.65 136.1 124.99 136.1 144.64 136.1 174.78 155.75 174.78 155.75 144.64 155.75 144.64 155.75 124.99 155.75 124.99 155.75 96.37 214.73 96.37"/>
      <circle class="cls-3" cx="185.24" cy="135.69" r="19.66"/>
      <path class="cls-1" d="M113.87,134.72h-.01c0,.32.01.65.01.97,0,21.72-17.6,39.31-39.31,39.31s-39.31-17.6-39.31-39.31c0-.32,0-.65.01-.97h-.02v-59.72h19.66v61.38c.37,10.53,9.03,18.96,19.66,18.96,5.31,0,10.13-2.11,13.68-5.53,3.54-3.42,5.8-8.16,5.98-13.43v-61.38h19.66v59.72Z"/>
    </g>
  </g>
</svg>
